<svg width="51" height="51" viewBox="0 0 51 51" fill="none" xmlns="http://www.w3.org/2000/svg">
<path d="M47.8125 44.625C47.8125 44.625 51 44.625 51 41.4375C51 38.25 47.8125 28.6875 35.0625 28.6875C22.3125 28.6875 19.125 38.25 19.125 41.4375C19.125 44.625 22.3125 44.625 22.3125 44.625H47.8125ZM22.3826 41.4375C22.3591 41.4343 22.3357 41.43 22.3125 41.4248C22.3157 40.5833 22.8448 38.1416 24.735 35.9422C26.4945 33.8799 29.5864 31.875 35.0625 31.875C40.5354 31.875 43.6273 33.8831 45.39 35.9422C47.2802 38.1416 47.8061 40.5864 47.8125 41.4248L47.787 41.4311C47.7722 41.4336 47.7573 41.4358 47.7424 41.4375H22.3826ZM35.0625 22.3125C36.7533 22.3125 38.3748 21.6409 39.5703 20.4453C40.7659 19.2498 41.4375 17.6283 41.4375 15.9375C41.4375 14.2467 40.7659 12.6252 39.5703 11.4297C38.3748 10.2341 36.7533 9.5625 35.0625 9.5625C33.3717 9.5625 31.7502 10.2341 30.5547 11.4297C29.3592 12.6252 28.6875 14.2467 28.6875 15.9375C28.6875 17.6283 29.3592 19.2498 30.5547 20.4453C31.7502 21.6409 33.3717 22.3125 35.0625 22.3125ZM44.625 15.9375C44.625 17.1933 44.3777 18.4367 43.8971 19.5969C43.4165 20.7571 42.7122 21.8112 41.8242 22.6992C40.9362 23.5872 39.8821 24.2915 38.7219 24.7721C37.5617 25.2527 36.3183 25.5 35.0625 25.5C33.8067 25.5 32.5633 25.2527 31.4031 24.7721C30.2429 24.2915 29.1888 23.5872 28.3008 22.6992C27.4128 21.8112 26.7085 20.7571 26.2279 19.5969C25.7473 18.4367 25.5 17.1933 25.5 15.9375C25.5 13.4014 26.5075 10.9691 28.3008 9.17579C30.0941 7.38248 32.5264 6.375 35.0625 6.375C37.5986 6.375 40.0309 7.38248 41.8242 9.17579C43.6175 10.9691 44.625 13.4014 44.625 15.9375ZM22.1085 29.58C20.8334 29.1785 19.5191 28.9146 18.1879 28.7927C17.4399 28.7216 16.6889 28.6865 15.9375 28.6875C3.1875 28.6875 0 38.25 0 41.4375C0 43.5636 1.06144 44.625 3.1875 44.625H16.626C16.1535 43.6299 15.9178 42.5389 15.9375 41.4375C15.9375 38.2181 17.1392 34.9286 19.4119 32.181C20.1864 31.2439 21.0885 30.3673 22.1085 29.58ZM15.6825 31.875C13.796 34.7096 12.7769 38.0327 12.75 41.4375H3.1875C3.1875 40.6087 3.71025 38.1544 5.61 35.9422C7.34719 33.915 10.3658 31.9388 15.6825 31.8782V31.875ZM4.78125 17.5312C4.78125 14.9951 5.78872 12.5629 7.58204 10.7695C9.37536 8.97623 11.8076 7.96875 14.3438 7.96875C16.8799 7.96875 19.3121 8.97623 21.1055 10.7695C22.8988 12.5629 23.9062 14.9951 23.9062 17.5312C23.9062 20.0674 22.8988 22.4996 21.1055 24.293C19.3121 26.0863 16.8799 27.0938 14.3438 27.0938C11.8076 27.0938 9.37536 26.0863 7.58204 24.293C5.78872 22.4996 4.78125 20.0674 4.78125 17.5312ZM14.3438 11.1562C12.653 11.1562 11.0315 11.8279 9.83594 13.0234C8.6404 14.219 7.96875 15.8405 7.96875 17.5312C7.96875 19.222 8.6404 20.8435 9.83594 22.0391C11.0315 23.2346 12.653 23.9062 14.3438 23.9062C16.0345 23.9062 17.656 23.2346 18.8516 22.0391C20.0471 20.8435 20.7188 19.222 20.7188 17.5312C20.7188 15.8405 20.0471 14.219 18.8516 13.0234C17.656 11.8279 16.0345 11.1562 14.3438 11.1562Z" fill="black"/>
</svg>
