<svg width="37" height="37" viewBox="0 0 37 37" fill="none" xmlns="http://www.w3.org/2000/svg">
<path d="M18.5 18.5C22.7572 18.5 26.2083 15.0488 26.2083 10.7916C26.2083 6.53445 22.7572 3.08331 18.5 3.08331C14.2428 3.08331 10.7916 6.53445 10.7916 10.7916C10.7916 15.0488 14.2428 18.5 18.5 18.5Z" stroke="black" stroke-opacity="0.75" stroke-width="2"/>
<path d="M26.2083 21.5833H26.751C27.8781 21.5836 28.9663 21.9955 29.8111 22.7415C30.6559 23.4876 31.1993 24.5164 31.339 25.6348L31.9418 30.451C31.996 30.8849 31.9573 31.3253 31.8283 31.7431C31.6993 32.1608 31.4829 32.5464 31.1935 32.8742C30.9041 33.2019 30.5483 33.4644 30.1497 33.6441C29.7511 33.8238 29.3188 33.9167 28.8816 33.9166H8.11843C7.68118 33.9167 7.24892 33.8238 6.85032 33.6441C6.45173 33.4644 6.09592 33.2019 5.80651 32.8742C5.5171 32.5464 5.30071 32.1608 5.17169 31.7431C5.04268 31.3253 5.004 30.8849 5.05822 30.451L5.65947 25.6348C5.79929 24.5159 6.34307 23.4866 7.18854 22.7405C8.03402 21.9944 9.12294 21.5829 10.2506 21.5833H10.7917" stroke="black" stroke-opacity="0.75" stroke-width="2" stroke-linecap="round" stroke-linejoin="round"/>
</svg>
