<svg width="51" height="51" viewBox="0 0 51 51" fill="none" xmlns="http://www.w3.org/2000/svg">
<path d="M38.25 27.6249H36.805L32.555 31.8749H36.6137L40.375 36.1249H10.625L14.4075 31.8749H18.7638L14.5138 27.6249H12.75L6.375 33.9999V42.4999C6.375 44.8374 8.26625 46.7499 10.6037 46.7499H40.375C41.5022 46.7499 42.5832 46.3022 43.3802 45.5051C44.1772 44.7081 44.625 43.6271 44.625 42.4999V33.9999L38.25 27.6249ZM40.375 42.4999H10.625V40.3749H40.375V42.4999ZM24.0975 31.9174C24.9263 32.7462 26.265 32.7462 27.0938 31.9174L40.6087 18.4024C40.8057 18.2058 40.962 17.9723 41.0687 17.7152C41.1753 17.4582 41.2302 17.1826 41.2302 16.9043C41.2302 16.626 41.1753 16.3504 41.0687 16.0933C40.962 15.8363 40.8057 15.6028 40.6087 15.4062L30.09 4.88742C29.8983 4.68683 29.6682 4.52678 29.4135 4.41679C29.1587 4.3068 28.8845 4.24911 28.607 4.24712C28.3295 4.24514 28.0545 4.29892 27.7982 4.40526C27.5419 4.5116 27.3096 4.66834 27.115 4.86617L13.5787 18.4024C13.3818 18.599 13.2255 18.8325 13.1188 19.0896C13.0122 19.3467 12.9573 19.6222 12.9573 19.9005C12.9573 20.1789 13.0122 20.4544 13.1188 20.7115C13.2255 20.9686 13.3818 21.2021 13.5787 21.3987L24.0975 31.9174ZM28.6025 9.37117L36.125 16.8937L25.6063 27.4124L18.0838 19.8899L28.6025 9.37117Z" fill="black"/>
</svg>
