<svg width="51" height="51" viewBox="0 0 51 51" fill="none" xmlns="http://www.w3.org/2000/svg">
<path d="M34.4251 22.9501H31.1917L35.6083 15.3001C35.9464 14.7144 36.0381 14.0184 35.863 13.3651C35.688 12.7119 35.2607 12.1549 34.675 11.8168L28.0501 7.99178C27.4644 7.65364 26.7684 7.56201 26.1152 7.73703C25.4619 7.91206 24.905 8.33941 24.5668 8.92508L18.1918 19.9666C17.9221 20.4332 17.8071 20.9733 17.8635 21.5093C17.9198 22.0454 18.1446 22.5497 18.5054 22.9501H16.5751C16.2369 22.9501 15.9126 23.0844 15.6735 23.3235C15.4344 23.5626 15.3001 23.8869 15.3001 24.2251C15.3001 24.5632 15.4344 24.8875 15.6735 25.1266C15.9126 25.3657 16.2369 25.5001 16.5751 25.5001H34.4251C34.7632 25.5001 35.0876 25.3657 35.3267 25.1266C35.5658 24.8875 35.7001 24.5632 35.7001 24.2251C35.7001 23.8869 35.5658 23.5626 35.3267 23.3235C35.0876 23.0844 34.7632 22.9501 34.4251 22.9501ZM26.7751 10.2001L33.4 14.0251L28.249 22.9501H23.3581L20.4001 21.2416L26.7751 10.2001ZM37.0694 17.8501L35.5981 20.4001H36.9751L42.7126 28.0501H8.2876L14.0251 20.4001H15.0604C15.1124 20.2495 15.1791 20.1043 15.2593 19.9666L16.4833 17.8501H14.0251C13.6292 17.8501 13.2388 17.9422 12.8847 18.1193C12.5306 18.2963 12.2226 18.5534 11.9851 18.8701L5.6101 27.3692C5.27905 27.8106 5.1001 28.3475 5.1001 28.8992V40.8001C5.1001 41.4764 5.36876 42.125 5.84698 42.6032C6.32519 43.0814 6.9738 43.3501 7.6501 43.3501H43.3501C44.0264 43.3501 44.675 43.0814 45.1532 42.6032C45.6314 42.125 45.9001 41.4764 45.9001 40.8001V28.8992C45.9001 28.3475 45.7211 27.8106 45.3901 27.3692L39.0151 18.8701C38.7873 18.5658 38.4944 18.3163 38.1577 18.1398C37.8211 17.9633 37.4493 17.8643 37.0694 17.8501Z" fill="black"/>
</svg>
